<?xml version="1.0" encoding="iso-8859-1"?>
<!-- Generator: Adobe Illustrator 19.0.0, SVG Export Plug-In . SVG Version: 6.00 Build 0)  -->
<svg version="1.1" id="Layer_1" xmlns="http://www.w3.org/2000/svg" xmlns:xlink="http://www.w3.org/1999/xlink" x="0px" y="0px"
	 viewBox="0 0 512 512" style="enable-background:new 0 0 512 512;" xml:space="preserve">
<g>
	<polygon style="fill:#F8C442;" points="291.724,340.804 219.759,382.353 147.794,340.804 147.794,257.707 219.759,216.157 
		291.724,257.707 	"/>
	<polygon style="fill:#F8C442;" points="435.65,340.804 363.685,382.353 291.72,340.804 291.72,257.707 363.685,216.157 
		435.65,257.707 	"/>
	<polygon style="fill:#F8C442;" points="148.04,340.804 76.075,382.353 4.11,340.804 4.11,257.707 76.075,216.157 148.04,257.707 	
		"/>
	<polygon style="fill:#F8C442;" points="363.685,465.46 291.72,507.009 219.755,465.46 219.755,382.362 291.72,340.813 
		363.685,382.362 	"/>
	<polygon style="fill:#F8C442;" points="507.614,465.46 435.65,507.009 363.685,465.46 363.685,382.362 435.65,340.813 
		507.614,382.362 	"/>
	<polygon style="fill:#F8C442;" points="507.614,216.122 435.65,257.671 363.685,216.122 363.685,133.024 435.65,91.475 
		507.614,133.024 	"/>
</g>
<polygon style="fill:#F4A240;" points="435.65,257.698 435.65,340.794 363.682,382.353 344.686,371.385 417.059,329.604 
	417.059,246.964 "/>
<polygon style="fill:#F8C442;" points="219.755,465.46 147.79,507.009 75.826,465.46 75.826,382.362 147.79,340.813 
	219.755,382.362 "/>
<g>
	<polygon style="fill:#F4A240;" points="507.616,133.021 507.616,216.118 435.649,257.676 417.059,246.964 489.026,204.927 
		489.026,122.286 	"/>
	<polygon style="fill:#F4A240;" points="507.614,382.353 507.614,465.451 435.647,507.009 416.651,496.042 489.024,454.26 
		489.024,371.619 	"/>
	<polygon style="fill:#F4A240;" points="363.685,382.353 363.685,465.451 291.718,507.009 272.722,496.042 344.693,453.859 
		344.686,371.385 	"/>
</g>
<polygon style="fill:#F8C442;" points="363.685,216.122 291.72,257.671 219.755,216.122 219.755,133.024 291.72,91.475 
	363.685,133.024 "/>
<polygon style="fill:#F4A240;" points="363.685,133.016 363.685,216.113 291.718,257.671 273.134,246.964 344.693,204.52 
	344.686,122.047 "/>
<polygon style="fill:#F8C442;" points="219.711,216.122 147.746,257.671 75.781,216.122 75.781,133.024 147.746,91.475 
	219.711,133.024 "/>
<g>
	<polygon style="fill:#F4A240;" points="219.75,133.016 219.75,216.113 147.783,257.671 129.451,246.964 200.759,204.52 
		200.752,122.079 	"/>
	<polygon style="fill:#F4A240;" points="291.724,257.698 291.724,340.794 219.757,382.353 200.761,371.385 273.134,329.604 
		273.134,246.964 	"/>
	<polygon style="fill:#F4A240;" points="219.755,382.353 219.755,465.451 147.788,507.009 128.792,496.042 200.764,453.859 
		200.757,371.385 	"/>
	<polygon style="fill:#F4A240;" points="148.04,257.698 148.04,340.794 76.073,382.353 57.078,371.385 129.451,329.604 
		129.451,246.964 	"/>
</g>
<path style="fill:#F8C442;" d="M22.512,31.36L22.512,31.36c16.39-17.789,44.355-18.935,62.145-2.544l20.703,19.075
	c17.789,16.39,18.935,44.355,2.544,62.145l0,0c-16.39,17.789-44.355,18.935-62.145,2.544L25.057,93.505
	C7.267,77.114,6.122,49.15,22.512,31.36z"/>
<g>
	<path style="fill:#975D50;" d="M69.91,123.805l48.615-52.767c-1.281-6.049-3.84-11.876-7.658-17.019l-58.55,63.549
		C57.755,120.954,63.772,123.028,69.91,123.805z"/>
	
		<rect x="21.226" y="62.124" transform="matrix(-0.6776 0.7354 -0.7354 -0.6776 161.3873 70.6583)" style="fill:#975D50;" width="87.961" height="17.158"/>
	<path style="fill:#975D50;" d="M60.511,17.588L11.895,70.354c1.277,6.054,3.832,11.876,7.649,17.019l58.55-63.549
		C72.657,20.44,66.645,18.371,60.511,17.588z"/>
</g>
<g>
	<path style="fill:#CCCCCC;" d="M100.702,93.162l11.992,7.074l11.992,7.074c0,0,73.105-40.598,57.413-79.652
		c-1.384-3.444-3.483-6.692-6.018-9.66c-2.18-2.553-5.854-5.422-8.917-7.236c-0.833-0.494-1.668-0.985-2.503-1.477
		c-3.068-1.804-7.357-3.633-10.646-4.305c-3.824-0.782-7.682-1.049-11.366-0.595C100.877,9.542,100.702,93.162,100.702,93.162z"/>
	<path style="fill:#CCCCCC;" d="M90.498,104.238l8.031,11.374l8.031,11.374c0,0-34.486,76.179-74.692,63.731
		c-3.546-1.097-6.954-2.924-10.119-5.208c-2.722-1.964-5.883-5.391-7.941-8.297c-0.56-0.79-1.118-1.582-1.676-2.373
		c-2.049-2.91-4.221-7.035-5.162-10.259c-1.092-3.747-1.674-7.57-1.522-11.279C7.171,111.247,90.498,104.238,90.498,104.238z"/>
</g>
<circle style="fill:#975D50;" cx="112.956" cy="114.686" r="33.208"/>
<path d="M508.252,223.695c2.318-1.339,3.748-3.813,3.748-6.491v-82.026c0-2.678-1.429-5.152-3.748-6.491l-71.037-41.013
	c-2.318-1.339-5.177-1.339-7.495,0l-67.289,38.85l-67.289-38.85c-2.318-1.339-5.177-1.339-7.495,0l-67.311,38.862l-61.816-35.69
	c25.257-22.062,34.464-43.737,26.628-63.282c-1.57-3.916-3.942-7.751-7.052-11.397c-2.998-3.518-7.379-6.734-10.475-8.569
	l-2.435-1.439c-3.103-1.829-8.034-4.114-12.562-5.045c-4.693-0.965-9.196-1.193-13.386-0.681
	c-19.501,2.391-30.977,18.245-37.72,36.754L89.271,25.889c-9.766-9.011-22.492-13.68-35.858-13.14
	c-10.812,0.435-20.941,4.237-29.189,10.85l-8.506-7.848c-3.043-2.807-7.784-2.616-10.592,0.426
	c-2.807,3.042-2.615,7.785,0.427,10.591l8.506,7.849C2.23,52.087,2.776,75.26,15.199,92.147c0.059,0.083,0.123,0.163,0.185,0.244
	c1.815,2.435,3.866,4.744,6.177,6.878l12.363,11.408c-17.686,8.152-32.91,20.84-33.728,40.445
	c-0.176,4.215,0.414,8.684,1.752,13.285c1.29,4.436,3.964,9.167,6.034,12.113c0.543,0.772,1.086,1.544,1.63,2.312
	c2.08,2.942,5.637,7.05,9.385,9.758c3.883,2.806,7.895,4.863,11.926,6.115c3.669,1.138,7.36,1.704,11.073,1.704
	c9.53,0,19.172-3.737,28.75-11.085v27.758L3.748,251.761C1.429,253.1,0,255.574,0,258.251v82.025c0,2.678,1.429,5.152,3.748,6.491
	l67.042,38.707v77.85c0,2.678,1.429,5.152,3.748,6.491l71.037,41.013c1.159,0.67,2.453,1.004,3.748,1.004
	c1.294,0,2.588-0.335,3.748-1.004l67.289-38.85l67.289,38.85c1.159,0.67,2.453,1.004,3.748,1.004c1.294,0,2.588-0.335,3.748-1.004
	l67.289-38.85l67.289,38.85c1.159,0.67,2.453,1.004,3.748,1.004c1.294,0,2.588-0.335,3.748-1.004l71.037-41.013
	c2.318-1.339,3.748-3.813,3.748-6.491v-82.026c0-2.678-1.429-5.152-3.748-6.491l-67.289-38.85v-73.416L508.252,223.695z
	 M227.853,139.505l63.542-36.685l63.542,36.685v73.371l-63.542,36.685l-63.542-36.685L227.853,139.505L227.853,139.505z
	 M85.736,170.789c4.632-5.439,9.225-11.723,13.759-18.854c3.875,1.22,7.896,1.837,11.914,1.837c4.779,0,9.549-0.866,14.061-2.573
	l2.23,8.264c0.902,3.343,3.927,5.544,7.231,5.544c0.646,0,1.304-0.084,1.958-0.261c3.996-1.078,6.362-5.193,5.284-9.189
	l-3.436-12.73c0.592-0.567,1.174-1.149,1.737-1.759c0.562-0.609,1.094-1.237,1.614-1.874l12.964,2.402
	c0.463,0.085,0.921,0.127,1.375,0.127c3.542,0,6.692-2.522,7.36-6.131c0.755-4.07-1.934-7.981-6.003-8.735l-8.396-1.556
	c1.172-4.046,1.706-8.296,1.532-12.628c-0.136-3.386-0.699-6.689-1.65-9.851l0.005-0.003l63.542,36.685v73.371l-63.427,36.619
	l-63.656-36.752v-41.955H85.736z M141.062,15.314c2.57-0.315,5.445-0.152,8.543,0.484c2.144,0.441,5.495,1.819,7.972,3.277
	l2.395,1.416c2.472,1.466,5.298,3.738,6.717,5.402c2.052,2.406,3.581,4.846,4.545,7.249c7.72,19.256-14.621,40.783-31.42,53.618
	c-0.513-0.529-1.038-1.047-1.583-1.551c-7.76-7.161-17.834-10.864-28.393-10.447c-0.469,0.019-0.933,0.056-1.398,0.09
	C110.835,55.083,118.347,18.099,141.062,15.314z M110.44,89.741c0.337-0.013,0.674-0.02,1.009-0.02
	c6.181,0,12.048,2.29,16.617,6.506c4.817,4.445,7.615,10.499,7.879,17.049c0.263,6.55-2.041,12.81-6.485,17.626
	c-9.178,9.944-24.731,10.568-34.675,1.393c-4.817-4.445-7.615-10.5-7.879-17.049c-0.109-2.712,0.229-5.373,0.969-7.905
	c0.023-0.082,0.049-0.162,0.07-0.245c1.061-3.488,2.9-6.72,5.445-9.478C97.835,92.802,103.89,90.004,110.44,89.741z M31.727,88.251
	c-0.104-0.096-0.201-0.198-0.304-0.296L53.75,63.759c2.808-3.042,2.616-7.784-0.426-10.591c-3.043-2.807-7.783-2.616-10.591,0.426
	L22.837,75.157c-4.62-12.025-2.405-26.173,6.903-36.263c0.001-0.001,0.003-0.002,0.004-0.004c0.001-0.001,0.002-0.003,0.003-0.004
	c6.295-6.821,14.913-10.783,24.267-11.16c3.891-0.157,7.7,0.324,11.315,1.38l-3.199,3.467c-2.808,3.042-2.616,7.784,0.426,10.591
	c1.441,1.33,3.264,1.987,5.081,1.987c2.02,0,4.033-0.811,5.51-2.412l5.639-6.112c0.105,0.095,0.214,0.184,0.319,0.28l10.554,9.739
	L69.233,68.781c-2.808,3.042-2.616,7.784,0.426,10.591c1.44,1.33,3.264,1.987,5.081,1.987c2.02,0,4.032-0.811,5.51-2.412
	l14.703-15.934c-0.962,5.757-1.618,11.3-2.062,16.315c-3.888,2.067-7.443,4.794-10.517,8.127c-3.075,3.332-5.508,7.094-7.256,11.137
	c-4.724,0.809-10.262,1.921-16.156,3.427l3.969-4.301c2.808-3.042,2.616-7.784-0.426-10.591c-3.041-2.808-7.784-2.617-10.591,0.426
	L42.282,97.99L31.727,88.251z M35.368,180.386c-2.474-0.768-5.028-2.097-7.591-3.948c-1.774-1.281-4.265-3.914-5.926-6.264
	c-0.534-0.756-1.067-1.511-1.602-2.272c-1.653-2.352-3.297-5.584-3.906-7.683c-0.883-3.037-1.276-5.89-1.169-8.476
	c0.949-22.733,36.267-33.16,56.731-37.299c0.003,0.467,0.003,0.933,0.022,1.403c0.425,10.55,4.932,20.304,12.692,27.464
	c0.547,0.504,1.106,0.984,1.672,1.452C75.296,161.822,55.367,186.597,35.368,180.386z M14.99,335.95v-73.37l63.427-36.619
	l63.414,36.612v73.386l-63.414,36.612L14.99,335.95z M212.863,458.998l-63.542,36.685L85.78,458.998V385.76l63.656-36.752
	l63.427,36.619L212.863,458.998L212.863,458.998z M157.064,336.091v-73.652l63.299-36.546l63.538,36.684v73.375l-63.538,36.684
	L157.064,336.091z M354.936,458.998l-63.542,36.685l-63.542-36.685v-73.371l63.542-36.685l63.542,36.685V458.998z M298.894,335.953
	v-73.375l63.538-36.684l63.542,36.686v73.371l-63.542,36.686L298.894,335.953z M497.01,385.627v73.371l-63.542,36.685
	l-63.542-36.685v-73.371l63.542-36.685L497.01,385.627z M433.468,249.562l-63.542-36.685v-73.371l63.542-36.685l63.542,36.685
	v73.371L433.468,249.562z"/>
<circle cx="102.923" cy="175.796" r="8.844"/>
<circle cx="108.589" cy="444.551" r="8.844"/>
<circle cx="134.602" cy="467.926" r="8.844"/>
<circle cx="327.007" cy="271.214" r="8.844"/>
<circle cx="180.982" cy="271.214" r="8.844"/>
<circle cx="394.812" cy="441.883" r="8.844"/>
<g>
</g>
<g>
</g>
<g>
</g>
<g>
</g>
<g>
</g>
<g>
</g>
<g>
</g>
<g>
</g>
<g>
</g>
<g>
</g>
<g>
</g>
<g>
</g>
<g>
</g>
<g>
</g>
<g>
</g>
</svg>
