<?xml version="1.0"?>
<svg xmlns="http://www.w3.org/2000/svg" viewBox="0 0 512 512" width="512" height="512"><g id="Filled_outline" data-name="Filled outline"><path d="M488,72a16,16,0,0,1-16,16H325.26A47.193,47.193,0,0,1,320,98.51,47.9,47.9,0,0,1,280,120H232a48,48,0,1,1,0-96h48a47.982,47.982,0,0,1,45.26,32H472a15.979,15.979,0,0,1,16,16Z" style="fill:#92563a"/><path d="M408,323.14a110.853,110.853,0,0,1-7.56,40.3L353.98,482.9a7.992,7.992,0,0,1-7.45,5.1H165.47a7.992,7.992,0,0,1-7.45-5.1L119.06,382.72l-7.5-19.28a111.174,111.174,0,0,1,31.27-124.72L160,224V184H352v40l13.96,11.97,3.21,2.75A111.144,111.144,0,0,1,408,323.14Z" style="fill:#fae890"/><path d="M408,323.14a110.853,110.853,0,0,1-7.56,40.3L353.98,482.9a7.992,7.992,0,0,1-7.45,5.1H165.47a7.992,7.992,0,0,1-7.45-5.1L119.06,382.72c91.07-19.35,179.39-63.72,246.9-146.75l3.21,2.75A111.144,111.144,0,0,1,408,323.14Z" style="fill:#f5df73"/><path d="M408,323.14a110.853,110.853,0,0,1-7.56,40.3L353.98,482.9a7.992,7.992,0,0,1-7.45,5.1H165.47a7.992,7.992,0,0,1-7.45-5.1L119.06,382.72l-7.5-19.28a111.232,111.232,0,0,1-4.2-67.44H216a24.006,24.006,0,0,0,24-24V120h-8a48.06,48.06,0,0,1-45.27-32H325.26A47.193,47.193,0,0,1,320,98.51,47.9,47.9,0,0,1,280,120h-8V272a24.006,24.006,0,0,0,24,24H404.64A111.286,111.286,0,0,1,408,323.14Z" style="fill:#ffb531"/><path d="M408,323.14a110.853,110.853,0,0,1-7.56,40.3L353.98,482.9a7.992,7.992,0,0,1-7.45,5.1H165.47a7.992,7.992,0,0,1-7.45-5.1L119.06,382.72c66.02-14.03,130.58-41.2,186.83-86.72h98.75A111.286,111.286,0,0,1,408,323.14Z" style="fill:#ffa912"/><path d="M488.967,55.014A23.883,23.883,0,0,0,472,48H330.6A56,56,0,0,0,280,16H232a56,56,0,0,0,0,112v48H160a8,8,0,0,0-8,8v36.321l-14.374,12.323a119.2,119.2,0,0,0-17.447,18.525l12.754,9.661a103.242,103.242,0,0,1,15.1-16.037l17.17-14.719A8,8,0,0,0,168,224V192h64v24H184v16h48v40a16.019,16.019,0,0,1-16,16H153.3a70.8,70.8,0,0,1,5.08-7.789l-12.765-9.645a87.571,87.571,0,0,0-9.653,16.164c-.193.418-.364.848-.55,1.27H118.179c.98-2.7,2.057-5.371,3.256-7.97l-14.53-6.7a119.2,119.2,0,0,0-2.8,93.01L150.561,485.8A15.9,15.9,0,0,0,165.473,496H346.527a15.9,15.9,0,0,0,14.912-10.2L407.9,366.343a119.173,119.173,0,0,0-33.518-133.7L360,220.321V184a8,8,0,0,0-8-8H280V128a55.843,55.843,0,0,0,46.653-25.048A55.278,55.278,0,0,0,330.6,96H472a24.008,24.008,0,0,0,16.967-40.986ZM280,80H264V32h16ZM248,32V80H232V32Zm-32,3.318V80H192.8a40.291,40.291,0,0,1-.8-8A39.844,39.844,0,0,1,216,35.318ZM248,192h16v24H248ZM398.238,342.161a103.528,103.528,0,0,1-5.254,18.38L346.527,480H165.473L119.016,360.539A103.161,103.161,0,0,1,113.792,304H130.13a87.135,87.135,0,0,0,3.8,50.741L149.546,394.9l14.912-5.8L148.84,348.94a71.236,71.236,0,0,1-2.687-43.191c.148-.587.321-1.166.483-1.749H216a32.036,32.036,0,0,0,32-32V232h16v40a32.036,32.036,0,0,0,32,32H398.208a103.328,103.328,0,0,1,.03,38.161Zm-34.274-97.367A102.56,102.56,0,0,1,393.824,288H296a16.019,16.019,0,0,1-16-16V232h69.04ZM344,192v24H280V192Zm-64-80h-8a8,8,0,0,0-8,8v56H248V120a8,8,0,0,0-8-8h-8a39.7,39.7,0,0,1-28.283-11.717,40.185,40.185,0,0,1-3.7-4.283H311.979A39.875,39.875,0,0,1,280,112ZM472,80H296V35.346a39.981,39.981,0,0,1,21.717,23.32A8,8,0,0,0,325.26,64H472a8,8,0,0,1,0,16ZM165.568,272.09,154.432,260.6c1.29-1.25,2.639-2.479,4.01-3.653l8.19-7.021,10.414,12.147-8.193,7.024C167.727,270.062,166.623,271.067,165.568,272.09Z"/></g></svg>
