<svg id="Capa_1" enable-background="new 0 0 512 512" height="512" viewBox="0 0 512 512" width="512" xmlns="http://www.w3.org/2000/svg"><g><g><path d="m395.402 126.699 22.938 27.426c15.201 18.175 23.529 41.114 23.529 64.807v224.958c0 33.474-27.136 60.61-60.61 60.61h-250.519c-33.474 0-60.61-27.136-60.61-60.61v-224.957c0-23.693 8.328-46.633 23.529-64.807l22.938-27.426h278.805z" fill="#dd636e"/></g><g><path d="m377.22 443.89h-242.44c-11.158 0-20.203-9.045-20.203-20.203v-181.829c0-11.158 9.045-20.203 20.203-20.203h242.44c11.158 0 20.203 9.045 20.203 20.203v181.829c0 11.158-9.046 20.203-20.203 20.203z" fill="#ecf4ff"/></g><g><path d="m114.577 70.13h282.846v32.325h-282.846z" fill="#f1d0a5"/></g><g><path d="m375.199 70.13h22.224v32.325h-22.224z" fill="#f1b986"/></g><g><path d="m418.341 154.126-22.938-27.426h-278.805l-22.938 27.426c-3.322 3.972-6.295 8.183-8.945 12.568l24.125-4.72c5.124-1.003 10.393-1.003 15.517 0l30.95 6.056c5.124 1.002 10.393 1.002 15.517 0l30.95-6.056c5.124-1.002 10.393-1.002 15.517 0l30.95 6.056c5.124 1.002 10.393 1.002 15.517 0l30.95-6.056c5.124-1.002 10.393-1.002 15.517 0l30.95 6.056c5.124 1.002 10.393 1.002 15.517 0l36.496-7.14c1.46-.286 2.963-.269 4.417.048h.002c2.853.623 5.362 2.35 6.899 4.833 9.84 15.891 15.139 34.285 15.139 53.163v224.956c0 33.474-27.136 60.61-60.61 60.61h22.224c33.474 0 60.61-27.136 60.61-60.61v-224.957c.001-23.693-8.327-46.633-23.528-64.807z" fill="#da4a54"/></g><g><path d="m397.423 102.455 25.715 25.715c5.641 5.641.564 15.177-7.266 13.645l-20.47-4.005-46.467 9.091-46.467-9.091-46.468 9.092-46.467-9.091-46.467 9.091-46.467-9.091-20.47 4.005c-7.83 1.532-12.908-8.004-7.266-13.645l25.715-25.715h282.845z" fill="#b3e59f"/></g><g><path d="m423.138 128.171-25.715-25.715h-35.356l35.847 35.847c1.837.36 9.517 1.862 17.956 3.513 7.83 1.531 12.91-8.004 7.268-13.645z" fill="#95d6a4"/></g><g><path d="m397.423 70.13h-282.846c-11.158 0-20.203-9.045-20.203-20.203v-22.224c0-11.158 9.045-20.203 20.203-20.203h282.846c11.158 0 20.203 9.045 20.203 20.203v22.224c0 11.158-9.045 20.203-20.203 20.203z" fill="#b3e59f"/></g><g><path d="m397.423 7.5h-31.315c11.158 0 20.203 9.045 20.203 20.203v22.224c0 11.158-9.045 20.203-20.203 20.203h31.315c11.158 0 20.203-9.045 20.203-20.203v-22.224c0-11.158-9.045-20.203-20.203-20.203z" fill="#95d6a4"/></g><g><g><path d="m309.828 315.385c-11.158 0-20.203-16.163-20.203-16.163s9.045-16.163 20.203-16.163 20.203 16.163 20.203 16.163-9.045 16.163-20.203 16.163z" fill="#95d6a4"/></g><g><path d="m305.788 279.019c0 11.158-16.163 20.203-16.163 20.203s-16.163-9.045-16.163-20.203 16.163-20.203 16.163-20.203 16.163 9.045 16.163 20.203z" fill="#b3e59f"/></g><g><path d="m201.053 387.794c8.572 8.572 65.539 5.89 94.286-22.857 18.836-18.836 13.123-46.88-5.713-65.716s-46.88-24.55-65.716-5.713c-28.747 28.747-31.428 85.715-22.857 94.286z" fill="#dd636e"/></g><g><path d="m306.82 340.107c-10.419 8.675-23.874 15.715-39.281 19.844-26.691 7.152-52.674 3.802-69.743-7.12-2.236 16.908-.675 31.031 3.258 34.964 8.572 8.572 65.539 5.89 94.286-22.857 7.259-7.261 10.859-15.89 11.48-24.831z" fill="#da4a54"/></g></g><g><path d="m348.935 386.74h16.163c4.142 0 7.5-3.358 7.5-7.5s-3.358-7.5-7.5-7.5h-16.163c-4.142 0-7.5 3.358-7.5 7.5s3.358 7.5 7.5 7.5z"/><path d="m348.935 419.065h16.163c4.142 0 7.5-3.358 7.5-7.5s-3.358-7.5-7.5-7.5h-16.163c-4.142 0-7.5 3.358-7.5 7.5s3.358 7.5 7.5 7.5z"/><path d="m146.902 386.74h16.163c4.142 0 7.5-3.358 7.5-7.5s-3.358-7.5-7.5-7.5h-16.163c-4.142 0-7.5 3.358-7.5 7.5s3.358 7.5 7.5 7.5z"/><path d="m146.902 419.065h16.163c4.142 0 7.5-3.358 7.5-7.5s-3.358-7.5-7.5-7.5h-16.163c-4.142 0-7.5 3.358-7.5 7.5s3.358 7.5 7.5 7.5z"/><path d="m377.22 451.39c15.275 0 27.703-12.428 27.703-27.703v-181.829c0-15.276-12.428-27.704-27.703-27.704h-242.44c-15.275 0-27.703 12.428-27.703 27.704v181.829c0 15.275 12.428 27.703 27.703 27.703zm-255.143-27.703v-181.829c0-7.005 5.699-12.704 12.703-12.704h242.44c7.004 0 12.703 5.699 12.703 12.704v181.829c0 7.004-5.699 12.703-12.703 12.703h-242.44c-7.004 0-12.703-5.699-12.703-12.703z"/><path d="m441.87 396.62c-4.142 0-7.5 3.358-7.5 7.5v39.77c0 29.285-23.825 53.11-53.11 53.11h-250.52c-29.285 0-53.11-23.825-53.11-53.11v-159.78c0-4.142-3.358-7.5-7.5-7.5s-7.5 3.358-7.5 7.5v159.78c0 37.556 30.554 68.11 68.11 68.11h250.52c37.556 0 68.11-30.554 68.11-68.11v-39.77c0-4.142-3.358-7.5-7.5-7.5z"/><path d="m424.094 149.319-.819-.98c3.301-1.334 6.126-3.795 7.902-7.131 3.244-6.091 2.144-13.461-2.735-18.341l-23.519-23.519v-22.758c11.644-3.279 20.207-13.985 20.207-26.659v-22.231c0-15.274-12.431-27.7-27.71-27.7h-39.63c-4.142 0-7.5 3.358-7.5 7.5s3.358 7.5 7.5 7.5h39.63c7.008 0 12.71 5.697 12.71 12.7v22.23c0 7.002-5.702 12.7-12.71 12.7h-282.84c-7.008 0-12.71-5.697-12.71-12.7v-22.23c0-7.003 5.702-12.7 12.71-12.7h208.11c4.142 0 7.5-3.358 7.5-7.5s-3.358-7.5-7.5-7.5h-208.11c-15.279 0-27.71 12.426-27.71 27.7v22.23c0 12.674 8.563 23.38 20.207 26.659v22.759l-23.519 23.519c-4.879 4.879-5.979 12.25-2.735 18.341 1.776 3.336 4.601 5.797 7.903 7.131l-.817.977c-16.302 19.474-25.279 44.2-25.279 69.624v30.09c0 4.142 3.358 7.5 7.5 7.5s7.5-3.358 7.5-7.5v-30.09c0-21.91 7.735-43.217 21.784-60l10.121-12.105 7.063-1.382 45.027 8.81c.951.187 1.929.187 2.88 0l45.028-8.81 45.027 8.81c.951.187 1.929.187 2.88 0l45.027-8.81 45.028 8.81c.476.093.958.14 1.44.14s.964-.046 1.44-.14l45.027-8.81 7.063 1.382 10.124 12.109c14.046 16.779 21.781 38.086 21.781 59.996v150.08c0 4.142 3.358 7.5 7.5 7.5s7.5-3.358 7.5-7.5v-150.08c0-25.424-8.977-50.15-25.276-69.621zm-302.017-54.364v-17.325h267.846v17.325zm271.885 35.496-45.027 8.81-45.028-8.81c-.476-.093-.958-.14-1.44-.14s-.964.046-1.44.14l-45.027 8.809-45.027-8.81c-.951-.187-1.929-.187-2.88 0l-45.028 8.81-45.027-8.81c-.951-.187-1.929-.187-2.88 0l-20.47 4.005c-.245.048-.422.082-.625-.297-.202-.38-.075-.508.102-.685l23.519-23.519h276.633l23.519 23.519c.177.177.304.305.102.685-.203.379-.379.345-.625.297l-20.47-4.005c-.952-.186-1.929-.186-2.881.001z"/><path d="m221.13 399.574c6.977 0 14.293-.729 20.749-1.818 14.041-2.371 40.346-9.098 58.763-27.515 10.446-10.446 15.209-24.321 13.412-39.068-.345-2.83-.937-5.655-1.737-8.455 13.766-1.794 23.179-17.895 24.261-19.828 1.275-2.277 1.275-5.052 0-7.329-1.064-1.9-10.178-17.488-23.563-19.723-2.232-13.395-17.826-22.502-19.726-23.565-2.275-1.272-5.048-1.272-7.323 0-1.932 1.081-18.036 10.485-19.831 24.259-2.801-.801-5.628-1.394-8.461-1.739-14.747-1.801-28.622 2.966-39.068 13.412-18.417 18.417-25.144 44.722-27.515 58.763-2.764 16.368-3.202 38.27 4.658 46.129 4.761 4.76 14.67 6.477 25.381 6.477zm99.948-100.35c-3.19 4.286-7.735 8.664-11.246 8.664-1.554 0-3.543-.947-5.663-2.671-1.05-1.588-2.171-3.148-3.367-4.671 3.102-2.553 6.526-5.946 8.995-9.98.011 0 .024-.002.035-.002 3.512-.002 8.059 4.38 11.246 8.66zm-40.112-20.203c0-3.517 4.381-8.064 8.662-11.248 4.286 3.188 8.664 7.733 8.664 11.248 0 .673-.171 1.411-.518 2.242-1.307 3.118-4.571 6.206-7.444 8.436-2.153-1.819-4.383-3.489-6.676-5.006-1.735-2.125-2.688-4.119-2.688-5.672zm-74.848 69.096c2.151-11.94 8.012-34.222 23.095-49.306 16.214-16.213 39.994-9.4 55.106 5.71l.006.006c.002.002.005.004.007.006 15.106 15.113 21.915 38.889 5.704 55.1-15.084 15.083-37.366 20.944-49.306 23.095-18.652 3.36-31.535 1.497-34.354-.258-1.754-2.818-3.618-15.701-.258-34.353z"/><path d="m243.196 327.437c1.919 0 3.839-.732 5.303-2.197l5.714-5.714c2.929-2.929 2.929-7.678 0-10.606-2.929-2.929-7.678-2.929-10.606 0l-5.714 5.714c-2.929 2.929-2.929 7.678 0 10.606 1.464 1.465 3.383 2.197 5.303 2.197z"/><path d="m268.911 353.152c1.919 0 3.839-.732 5.303-2.197l5.714-5.714c2.929-2.929 2.929-7.678 0-10.606-2.929-2.929-7.678-2.929-10.606 0l-5.714 5.714c-2.929 2.929-2.929 7.678 0 10.606 1.464 1.464 3.383 2.197 5.303 2.197z"/><path d="m233.114 363.234c1.919 0 3.839-.732 5.303-2.197l5.714-5.714c2.929-2.929 2.929-7.678 0-10.606-2.929-2.929-7.678-2.929-10.606 0l-5.714 5.714c-2.929 2.929-2.929 7.678 0 10.606 1.464 1.464 3.383 2.197 5.303 2.197z"/></g></g></svg>