<svg id="Layer_3" enable-background="new 0 0 64 64" height="512" viewBox="0 0 64 64" width="512" xmlns="http://www.w3.org/2000/svg"><g><g><path d="m62 5h-32c0-1.657-1.343-3-3-3h-14c-1.105 0-2 .895-2 2 0 1.105.895 2 2 2h11c1.105 0 2 .895 2 2 0 1.105-.895 2-2 2h-11c-1.105 0-2 .895-2 2 0 1.105.895 2 2 2h14c1.657 0 3-1.343 3-3h32z" fill="#a8b0bc"/></g><g><path d="m36 44c0-6.627 5.373-12 12-12s12 5.373 12 12z" fill="#f9d18b"/></g><g><path d="m40 44c0-4.418 3.582-8 8-8s8 3.582 8 8z" fill="#bb9d68"/></g><g><path d="m44 44c0-2.209 1.791-4 4-4s4 1.791 4 4z" fill="#f9d18b"/></g><g><path d="m4 44c0-6.627 5.373-12 12-12s12 5.373 12 12z" fill="#f9d18b"/></g><g><path d="m16 32c2.188 0 4.234.595 6 1.618v-31.618h-8v30.18c.652-.11 1.317-.18 2-.18z" fill="#f9d18b"/></g><g><path d="m8 44c0-4.418 3.582-8 8-8s8 3.582 8 8z" fill="#bb9d68"/></g><g><path d="m12 44c0-2.209 1.791-4 4-4s4 1.791 4 4z" fill="#f9d18b"/></g><g><path d="m20 44c0-6.627 5.373-12 12-12s12 5.373 12 12z" fill="#f9d18b"/></g><g><path d="m24 44c0-4.418 3.582-8 8-8s8 3.582 8 8z" fill="#bb9d68"/></g><g><path d="m28 44c0-2.209 1.791-4 4-4s4 1.791 4 4z" fill="#f9d18b"/></g><g><path d="m2 44h60v6h-60z" fill="#976947"/></g><g><path d="m44.921 44h-42.921v6h38.8c1.698-1.822 3.087-3.84 4.121-6z" fill="#ac876c"/></g><g><path d="m4 50 12 12h32l12-12z" fill="#976947"/></g><g><path d="m4 50 9.939 9.939c.682.036 1.368.061 2.061.061 10.142 0 19.145-3.928 24.8-10z" fill="#ac876c"/></g><g><path d="m40 21-4.586-4.586c-.905-.905-1.414-2.133-1.414-3.414v-.172c0-1.171.465-2.293 1.293-3.121.453-.453 1.067-.707 1.707-.707.64 0 1.254.254 1.707.707l1.293 1.293 1.293-1.293c.453-.453 1.067-.707 1.707-.707.64 0 1.254.254 1.707.707.828.828 1.293 1.951 1.293 3.121v.172c0 1.281-.509 2.509-1.414 3.414z" fill="#bf5763"/></g><g><path d="m40 11-1.293-1.293c-.453-.453-1.067-.707-1.707-.707s-1.254.254-1.707.707c-.828.828-1.293 1.951-1.293 3.121v.172c0 1.281.509 2.509 1.414 3.414l.526.526c3.975-.466 7.06-3.84 7.06-7.94-.64 0-1.254.254-1.707.707z" fill="#e0747c"/></g><g><path d="m56 29-4.586-4.586c-.905-.905-1.414-2.133-1.414-3.414v-.172c0-1.171.465-2.293 1.293-3.121.453-.453 1.067-.707 1.707-.707.64 0 1.254.254 1.707.707l1.293 1.293 1.293-1.293c.453-.453 1.067-.707 1.707-.707.64 0 1.254.254 1.707.707.828.828 1.293 1.951 1.293 3.121v.172c0 1.281-.509 2.509-1.414 3.414z" fill="#bf5763"/></g><g><path d="m56 19-1.293-1.293c-.453-.453-1.067-.707-1.707-.707s-1.254.254-1.707.707c-.828.828-1.293 1.951-1.293 3.121v.172c0 1.281.509 2.509 1.414 3.414l.526.526c3.975-.466 7.06-3.84 7.06-7.94-.64 0-1.254.254-1.707.707z" fill="#e0747c"/></g><g><path d="m62 51h-60c-.553 0-1-.447-1-1v-6c0-.553.447-1 1-1h60c.553 0 1 .447 1 1v6c0 .553-.447 1-1 1zm-59-2h58v-4h-58z"/></g><g><path d="m48 63h-32c-.266 0-.52-.105-.707-.293l-12-12 1.414-1.414 11.707 11.707h31.172l11.707-11.707 1.414 1.414-12 12c-.187.188-.441.293-.707.293z"/></g><g><path d="m5 44h-2c0-7.168 5.832-13 13-13 3.188 0 6.256 1.166 8.638 3.284l-1.33 1.494c-2.014-1.792-4.61-2.778-7.308-2.778-6.065 0-11 4.935-11 11z"/></g><g><path d="m9 44h-2c0-4.963 4.037-9 9-9 2.403 0 4.663.936 6.364 2.636l-1.414 1.414c-1.323-1.321-3.081-2.05-4.95-2.05-3.859 0-7 3.141-7 7z"/></g><g><path d="m21 44h-2c0-1.654-1.346-3-3-3s-3 1.346-3 3h-2c0-2.757 2.243-5 5-5s5 2.243 5 5z"/></g><g><path d="m45 44h-2c0-6.065-4.935-11-11-11s-11 4.935-11 11h-2c0-7.168 5.832-13 13-13s13 5.832 13 13z"/></g><g><path d="m41 44h-2c0-3.859-3.141-7-7-7s-7 3.141-7 7h-2c0-4.963 4.037-9 9-9s9 4.037 9 9z"/></g><g><path d="m37 44h-2c0-1.654-1.346-3-3-3s-3 1.346-3 3h-2c0-2.757 2.243-5 5-5s5 2.243 5 5z"/></g><g><path d="m61 44h-2c0-6.065-4.935-11-11-11-2.698 0-5.294.986-7.308 2.778l-1.33-1.494c2.382-2.118 5.45-3.284 8.638-3.284 7.168 0 13 5.832 13 13z"/></g><g><path d="m57 44h-2c0-3.859-3.141-7-7-7-1.869 0-3.627.729-4.95 2.05l-1.414-1.414c1.701-1.7 3.961-2.636 6.364-2.636 4.963 0 9 4.037 9 9z"/></g><g><path d="m53 44h-2c0-1.654-1.346-3-3-3s-3 1.346-3 3h-2c0-2.757 2.243-5 5-5s5 2.243 5 5z"/></g><g><path d="m41 35h-2v-2c0-.912.355-1.77 1-2.414l.586-.586c.267-.268.414-.622.414-1s-.147-.732-.414-1l-1.293-1.293 1.414-1.414 1.293 1.293c.645.645 1 1.502 1 2.414s-.355 1.77-1 2.414l-.586.586c-.267.268-.414.622-.414 1z"/></g><g><path d="m26.293 33.707-1.293-1.293c-.645-.645-1-1.502-1-2.414s.355-1.77 1-2.414l.586-.586c.267-.268.414-.622.414-1v-2h2v2c0 .912-.355 1.77-1 2.414l-.586.586c-.267.268-.414.622-.414 1s.147.732.414 1l1.293 1.293z"/></g><g><path d="m45.599 10h17.401v2h-17.401z"/></g><g><path d="m27 15h-5v-2h5c1.103 0 2-.897 2-2 0-.553.447-1 1-1h4.401v2h-3.528c-.444 1.724-2.013 3-3.873 3z"/></g><g><path d="m14 15h-1c-1.654 0-3-1.346-3-3s1.346-3 3-3h1v2h-1c-.552 0-1 .448-1 1s.448 1 1 1h1z"/></g><g><path d="m24 11h-2v-2h2c.552 0 1-.448 1-1s-.448-1-1-1h-2v-2h2c1.654 0 3 1.346 3 3s-1.346 3-3 3z"/></g><g><path d="m14 7h-1c-1.654 0-3-1.346-3-3s1.346-3 3-3h14c1.86 0 3.429 1.276 3.873 3h32.127v2h-33c-.553 0-1-.447-1-1 0-1.103-.897-2-2-2h-14c-.552 0-1 .448-1 1s.448 1 1 1h1z"/></g><g><path d="m13 2h2v30h-2z"/></g><g><path d="m17 2h2v30h-2z"/></g><g><path d="m21 2h2v32h-2z"/></g><g><path d="m56 30c-.256 0-.512-.098-.707-.293l-4.586-4.586c-1.085-1.085-1.707-2.587-1.707-4.121v-.172c0-1.446.563-2.806 1.586-3.828 1.289-1.289 3.539-1.289 4.828 0l.586.586.586-.586c1.289-1.289 3.539-1.289 4.828 0 1.023 1.022 1.586 2.382 1.586 3.828v.172c0 1.534-.622 3.036-1.707 4.121l-4.586 4.586c-.195.195-.451.293-.707.293zm-3-12c-.378 0-.732.147-1 .414-.645.645-1 1.502-1 2.414v.172c0 1.008.408 1.994 1.121 2.707l3.879 3.879 3.879-3.879c.713-.713 1.121-1.699 1.121-2.707v-.172c0-.912-.355-1.77-1-2.414-.535-.533-1.465-.533-2 0l-1.293 1.293c-.391.391-1.023.391-1.414 0l-1.293-1.293c-.268-.267-.622-.414-1-.414z"/></g><g><path d="m40 22c-.256 0-.512-.098-.707-.293l-4.586-4.586c-1.085-1.085-1.707-2.587-1.707-4.121v-.172c0-1.446.563-2.806 1.586-3.828 1.289-1.289 3.539-1.289 4.828 0l.586.586.586-.586c1.289-1.289 3.539-1.289 4.828 0 1.023 1.022 1.586 2.382 1.586 3.828v.172c0 1.534-.622 3.036-1.707 4.121l-4.586 4.586c-.195.195-.451.293-.707.293zm-3-12c-.378 0-.732.147-1 .414-.645.645-1 1.502-1 2.414v.172c0 1.008.408 1.994 1.121 2.707l3.879 3.879 3.879-3.879c.713-.713 1.121-1.699 1.121-2.707v-.172c0-.912-.355-1.77-1-2.414-.535-.533-1.465-.533-2 0l-1.293 1.293c-.391.391-1.023.391-1.414 0l-1.293-1.293c-.268-.267-.622-.414-1-.414z"/></g></g></svg>