<svg id="Layer_3" enable-background="new 0 0 64 64" height="512" viewBox="0 0 64 64" width="512" xmlns="http://www.w3.org/2000/svg"><g><path d="m56 62h-48c-3.314 0-6-2.686-6-6 0-1.105.895-2 2-2h56c1.105 0 2 .895 2 2 0 3.314-2.686 6-6 6z" fill="#e39854"/><path d="m2.347 58h59.308l.003.001c-.824 2.33-3.046 3.999-5.658 3.999h-48c-2.612 0-4.834-1.669-5.658-3.998z" fill="#c16b3f"/><path d="m46 28h9c2.209 0 4 1.791 4 4v22h-54v-22c0-2.209 1.791-4 4-4h.929c1.326 0 2.598.527 3.536 1.464l.414.414c1.358 1.359 3.2 2.122 5.121 2.122 1.921 0 3.763-.763 5.121-2.121l.414-.414c.938-.938 2.21-1.465 3.536-1.465h5.929" fill="#f7d881"/><path d="m35 18-15-15c-.64-.64-1.509-1-2.414-1h-.172c-.905 0-1.774.36-2.414 1-.64.64-1 1.509-1 2.414v.172c0 .905.36 1.774 1 2.414l15 15" fill="#976947"/><path d="m33.5 19.5-14.5-14.5c-.64-.64-1.509-1-2.414-1h-.172c-.886 0-1.734.349-2.37.963-.019.15-.044.299-.044.451v.172c0 .905.36 1.774 1 2.414l15 15z" fill="#c18e59"/><path d="m36.707 18.707 16.586 16.586c.453.453.707 1.067.707 1.707 0 .64-.254 1.254-.707 1.707l-2.586 2.586c-.453.453-1.067.707-1.707.707-.64 0-1.254-.254-1.707-.707l-16.586-16.586c-.453-.453-.707-1.067-.707-1.707 0-.64.254-1.254.707-1.707l2.586-2.586c.453-.453 1.067-.707 1.707-.707.64 0 1.254.254 1.707.707z" fill="#e7e4dd"/><path d="m47 41-9-9h3.879c1.358 0 2.661.54 3.621 1.5.96.96 1.5 2.263 1.5 3.621z" fill="#f2c351"/><g><path d="m20.499 48.998c-1.234 0-2.396-.48-3.269-1.353l-.878-.878c-.99-.992-2.717-.991-3.707 0l-1.938 1.938-1.415-1.415 1.938-1.938c.874-.873 2.034-1.354 3.268-1.354 1.235 0 2.396.48 3.27 1.354l.878.878c.99.993 2.721.989 3.707 0l1.939-1.939 1.415 1.415-1.939 1.939c-.873.873-2.034 1.353-3.269 1.353z" fill="#f2c351"/></g><g><path d="m30.499 39.998c-1.234 0-2.396-.48-3.269-1.353l-.878-.878c-.99-.992-2.717-.991-3.707 0l-1.938 1.938-1.415-1.415 1.938-1.938c.874-.873 2.034-1.354 3.268-1.354 1.235 0 2.396.48 3.27 1.354l.878.878c.99.992 2.721.989 3.707 0l1.939-1.939 1.415 1.415-1.939 1.939c-.873.873-2.034 1.353-3.269 1.353z" fill="#f2c351"/></g><g><path d="m49.499 48.998c-1.234 0-2.396-.48-3.269-1.353l-.878-.878c-.99-.992-2.717-.991-3.707 0l-1.938 1.938-1.415-1.415 1.938-1.938c.874-.873 2.034-1.354 3.268-1.354 1.235 0 2.396.48 3.27 1.354l.878.878c.991.993 2.721.989 3.707 0l1.939-1.939 1.415 1.415-1.939 1.939c-.873.873-2.034 1.353-3.269 1.353z" fill="#f2c351"/></g><g><path d="m60 52.998-.002-20.998c0-2.757-2.242-5-4.998-5h-8.586l-9-9c-.525-.525-1.21-.825-1.923-.922l-14.785-14.786c-.833-.834-1.942-1.292-3.121-1.292h-.171c-1.18 0-2.289.459-3.123 1.293-.833.834-1.292 1.942-1.292 3.121v.172c0 1.178.459 2.287 1.292 3.121l14.753 14.753c.099.736.42 1.42.955 1.955l1.585 1.585h-3.514c-1.604 0-3.11.624-4.243 1.757l-.414.414c-1.179 1.179-2.746 1.829-4.414 1.829-1.644 0-3.252-.667-4.414-1.829l-.414-.414c-1.133-1.133-2.64-1.757-4.242-1.757h-.93c-2.758 0-5 2.243-5 5v20.999h-.001c-1.653 0-2.999 1.347-2.999 3 0 3.86 3.141 7.001 7 7.001h48.001c3.858 0 6.998-3.141 7-7.001 0-1.654-1.347-3.001-3-3.001zm-45.001-47.413v-.171c0-.644.251-1.25.708-1.708.455-.456 1.062-.706 1.707-.706h.171c.645 0 1.251.251 1.706.707l13.852 13.852c-.2.125-.389.27-.559.441l-2.585 2.585c-.17.17-.317.357-.446.554l-13.847-13.847c-.456-.456-.707-1.063-.707-1.707zm16 17.415c0-.377.146-.732.415-1l2.585-2.585c.267-.269.622-.415 1.001-.415.371 0 .736.151.999.415l16.585 16.585c.268.267.414.622.414 1.001 0 .377-.146.732-.414.999l-2.585 2.585c-.531.534-1.465.536-2 0l-.001-.001v-3.462c0-1.636-.637-3.174-1.793-4.33s-2.693-1.792-4.327-1.792h-3.464l-7-7c-.268-.268-.415-.624-.415-1zm14.999 15.583-5.584-5.584h1.464c1.101 0 2.136.429 2.914 1.208.778.777 1.206 1.812 1.206 2.914zm-39.999-6.583c0-1.654 1.346-3 3-3h.93c1.067 0 2.072.416 2.827 1.172l.414.414c1.558 1.556 3.628 2.414 5.83 2.414 2.201-.001 4.271-.858 5.828-2.415l.414-.415c.755-.754 1.76-1.17 2.828-1.17h5.514l13 13c.646.645 1.503.999 2.416.999.911 0 1.769-.354 2.414-.999l2.585-2.585c.645-.646.999-1.503.999-2.416 0-.911-.354-1.769-.999-2.414l-5.585-5.585h6.586c1.653 0 2.998 1.346 2.998 3l.001 20.999h-52v-20.999zm50.001 28.999h-48.001c-1.627 0-3.061-.793-3.974-2h55.949c-.914 1.207-2.348 2-3.974 2zm4.899-4.001h-57.799c-.066-.323-.101-.658-.101-1 0-.551.448-1 .999-1h1.001 54.001 1c.551 0 1 .449 1 1 0 .343-.035.677-.101 1z"/><path d="m22.353 46.23c-.986.989-2.717.993-3.707 0l-.878-.878c-.874-.873-2.034-1.354-3.27-1.354-1.233 0-2.394.48-3.268 1.354l-1.938 1.938 1.415 1.415 1.938-1.938c.99-.991 2.717-.992 3.707 0l.878.878c.873.872 2.034 1.353 3.269 1.353s2.396-.48 3.269-1.353l1.939-1.939-1.415-1.415z"/><path d="m32.353 37.23c-.986.989-2.717.992-3.707 0l-.878-.878c-.874-.873-2.034-1.354-3.27-1.354-1.233 0-2.394.48-3.268 1.354l-1.938 1.938 1.415 1.415 1.938-1.938c.99-.991 2.717-.992 3.707 0l.878.878c.873.872 2.034 1.353 3.269 1.353s2.396-.48 3.269-1.353l1.939-1.939-1.415-1.415z"/><path d="m51.353 46.23c-.986.989-2.716.993-3.707 0l-.878-.878c-.874-.873-2.034-1.354-3.27-1.354-1.233 0-2.394.48-3.268 1.354l-1.938 1.938 1.415 1.415 1.938-1.938c.99-.991 2.717-.992 3.707 0l.878.878c.873.872 2.034 1.353 3.269 1.353s2.396-.48 3.269-1.353l1.939-1.939-1.415-1.415z"/></g></g></svg>